<?xml version="1.0" encoding="UTF-8" standalone="no"?>
<svg
   id="b"
   data-name="Layer 2"
   viewBox="0 0 83.56 38.25"
   version="1.1"
   sodipodi:docname="vital_logo_inscape.svg"
   inkscape:version="1.2.1 (9c6d41e, 2022-07-14)"
   xmlns:inkscape="http://www.inkscape.org/namespaces/inkscape"
   xmlns:sodipodi="http://sodipodi.sourceforge.net/DTD/sodipodi-0.dtd"
   xmlns="http://www.w3.org/2000/svg"
   xmlns:svg="http://www.w3.org/2000/svg">
  <sodipodi:namedview
     id="namedview112"
     pagecolor="#ffffff"
     bordercolor="#000000"
     borderopacity="0.25"
     inkscape:showpageshadow="2"
     inkscape:pageopacity="0.0"
     inkscape:pagecheckerboard="0"
     inkscape:deskcolor="#d1d1d1"
     showgrid="false"
     inkscape:zoom="14.911441"
     inkscape:cx="37.789775"
     inkscape:cy="19.213435"
     inkscape:window-width="1390"
     inkscape:window-height="1027"
     inkscape:window-x="45"
     inkscape:window-y="25"
     inkscape:window-maximized="0"
     inkscape:current-layer="b" />
  <defs
     id="defs4">
    <style
       id="style2">
      .d, .e, .f {
        stroke-width: 0px;
      }

      .e {
        fill: #231f20;
      }

      .f {
        fill: #fff;
      }
    </style>
  </defs>
  <g
     id="c"
     data-name="Layer 1">
    <g
       id="g108">
      <path
         class="d"
         d="M32.34,38.25H5.58c-3.09,0-5.58-2.49-5.58-5.58V5.56C.03,2.47,2.49,0,5.58,0h26.73c3.09,0,5.58,2.49,5.58,5.58v27.11c.03,3.06-2.47,5.56-5.56,5.56Z"
         id="path6" />
      <g
         id="g18">
        <path
           class="f"
           d="M10.73,31.78c-.24.27.03.87.38.68,7.86-4.74,17.51-1.79,16.86-.24,0,0,.43,0,.46-1.06,3.23-5.5-13.09-4.09-17.7.62Z"
           id="path8" />
        <path
           class="f"
           d="M11.9,26.25c1.06-.7,2.63-9.51,2.82-11.57.14-1.73.65-5.23-2.09-5.18-.16-.08-.27.14-.14.24.22.22.24.54.35.76,1.25,2.39,0,10-1.14,13.5-.08.27-.46.19-.46-.05-.11-3.2-.49-11-2.11-12.39-.52-.43-1.63-.87-2.3-.95-3.04-.43-5.2,2.33-4.77,5.42.14,1.33,1.03,2.6,2.36,2.93.19.03.33.03.38-.11.08-.22-.05-.35-.16-.46-2.11-1.79-.98-6.88,1.73-6.91,1.08,0,1.41.81,1.65,1.65,1.06,3.28,1.17,11.57,1.14,12.69,0,.84,2.06.92,2.74.43Z"
           id="path10" />
        <path
           class="f"
           d="M16.97,15.11c1-.57,2.44-2.87.35-2.76-.6.05-1,.22-1.06.57-.24.57-.43,2.82.7,2.2Z"
           id="path12" />
        <path
           class="f"
           d="M32.42,20.26c-.33-.03-.35.24-.38.49-.16.65-1.03,4.31-2.11,3.42-.65-.95-.73-3.28-.22-4.39,1.03-2.85,3.66-7.4,2.55-10.33-.03-.03-.03-.05-.05-.08-1.65-1.76-3.2,1.63-3.52,2.9-1,3.04-.79,6.48-1.38,9.51-.14.38-.35,1.76-.81,1.79-.14-.03-.16-.46-.19-.57-.08-1.68.43-3.42.43-5.12.03-.49-.08-.6-.57-.6-.22-.03-.27-.08-.33-.22-.24-.76-1.08-1.06-1.84-.62l-.03.03c-1.49,1-1.95,2.95-2.17,4.58-.05.52-.43,2.95-1.06,2.93-.3,0-.38-.54-.43-.7-.38-1.63-.08-3.33.03-4.96.05-.08.11-.49.19-.92l1.19-.41s.03-.03.05-.03c.16-.11,1.36-.87,1.25-1.22-.03-.11-1-.05-2.17.08.35-1.22,1-3.42,1.17-3.88.22-.65-.05-1.22-1-.98-1.11.33-1.79,3.77-2.01,5.07-.76.08-1.44.19-1.79.22-.14.03-.22.22-.16.35.33.76,1.08,1.06,1.63,1.17-.14.76-.3,1.63-.33,1.84-.08,1.38-.62,2.85-1.25,4.09-.08.22-.19.43-.43.41-.73-.24-.05-3.77.03-4.47.03-.49.41-1.3-.22-1.49-.54-.16-1.38-.08-1.46.65-.38,1.6-.6,3.2-.43,4.82.16,2.36,2.2,3.01,3.2.65.05-.08.24-.35.38-.68.08-.19.38-.16.43.03.16.7.49,1.63,1.06,1.79.73.27,1.3-.3,1.73-.98.11-.14.38-.11.43.05.62,1.73,2.17,1.73,3.01.14.08-.14.33-.16.41-.03.35.52.98.62,1.57.08.27-.27.52-.76.65-1.25.08-.19.41-.16.46.03.46,1.57,1.52,3.44,3.09,1.9l.03-.03c.92-1.17,1.08-2.74,1.41-4.15.05-.3.41-.84-.03-.92ZM25.26,18.5c-.11.87-.73,5.15-1.49,5.77-.08.05-.16.05-.24,0-.3-.27-.22-1.27-.24-1.63,0-.84.6-4.96,1.65-5.2.05-.03.11-.03.14,0,.33.14.22.7.19,1.06Z"
           id="path14" />
        <path
           class="e"
           d="M30.06,16.82c.62-2.03,1.41-4.91,1.22-6.07-.03-.19-.35-.24-.43-.08-.57.98-1.03,3.96-1.25,6.04-.03.27.35.38.46.11Z"
           id="path16" />
      </g>
      <g
         id="g106">
        <g
           id="g50">
          <path
             class="d"
             d="M45.66,20.87h-.43v-1.66c-.17.14-.34.26-.57.34v-.4c.11-.03.23-.11.37-.2.14-.11.23-.23.29-.37h.34v2.29Z"
             id="path20" />
          <path
             class="d"
             d="M47.5,20.87h-.43v-1.66c-.17.14-.34.26-.57.34v-.4c.11-.03.23-.11.37-.2.14-.11.23-.23.29-.37h.34v2.29Z"
             id="path22" />
          <path
             class="d"
             d="M49.3,20.87h-.43v-1.66c-.17.14-.34.26-.57.34v-.4c.11-.03.23-.11.37-.2.14-.11.23-.23.29-.37h.34v2.29Z"
             id="path24" />
          <path
             class="d"
             d="M51.39,18.58h.92c.17,0,.32,0,.4.03.09.03.17.06.23.09.06.06.11.11.17.2s.06.17.06.26c0,.11-.03.2-.09.29s-.14.14-.23.2c.14.03.26.11.32.2s.11.2.11.34c0,.11-.03.2-.09.32-.06.09-.11.17-.2.23s-.17.09-.32.11c-.09,0-.26,0-.54.03h-.77v-2.29h.03ZM51.85,18.98v.52h.66c.09,0,.14-.03.17-.09.06-.06.06-.11.06-.17s-.03-.11-.06-.17c-.03-.06-.09-.06-.17-.09h-.66ZM51.85,19.87v.6h.74c.06,0,.11-.03.17-.09s.06-.11.06-.2c0-.06-.03-.11-.06-.17-.03-.06-.09-.09-.14-.11-.06-.03-.2-.03-.4-.03h-.37Z"
             id="path26" />
          <path
             class="d"
             d="M55.98,20.87h-.49l-.2-.52h-.92l-.2.52h-.49l.89-2.26h.49l.92,2.26ZM55.12,19.95l-.32-.83-.32.83h.63Z"
             id="path28" />
          <path
             class="d"
             d="M56.46,18.58h.92c.17,0,.32,0,.4.03.09.03.17.06.23.09.06.06.11.11.17.2s.06.17.06.26c0,.11-.03.2-.09.29s-.14.14-.23.2c.14.03.26.11.32.2s.11.2.11.34c0,.11-.03.2-.09.32-.06.09-.11.17-.2.23-.09.06-.17.09-.32.11-.09,0-.26,0-.54.03h-.77v-2.29h.03ZM56.92,18.98v.52h.63c.09,0,.14-.03.17-.09.06-.06.06-.11.06-.17s-.03-.11-.06-.17c-.03-.06-.09-.06-.17-.09h-.63ZM56.92,19.87v.6h.74c.06,0,.11-.03.17-.09s.06-.11.06-.2c0-.06-.03-.11-.06-.17-.03-.06-.09-.09-.14-.11-.06-.03-.2-.03-.4-.03h-.37Z"
             id="path30" />
          <path
             class="d"
             d="M60.42,20.04l.46.14c-.06.26-.17.43-.34.54s-.37.17-.6.17c-.32,0-.54-.11-.74-.32-.2-.2-.29-.49-.29-.86s.09-.66.29-.89c.2-.2.46-.32.77-.32.29,0,.52.09.69.26.11.09.17.23.23.43l-.46.11c-.03-.11-.09-.2-.17-.29-.09-.06-.2-.11-.32-.11-.17,0-.32.06-.4.17s-.17.32-.17.6.06.49.14.6c.11.11.23.17.4.17.11,0,.23-.03.32-.11.11-.03.17-.17.2-.32Z"
             id="path32" />
          <path
             class="d"
             d="M61.42,19.75c0-.23.03-.43.11-.57.06-.11.11-.23.2-.32.09-.09.2-.17.29-.2.14-.06.32-.09.49-.09.34,0,.6.11.8.32.2.2.32.49.32.86s-.09.66-.29.86-.46.32-.8.32-.6-.11-.8-.32c-.23-.23-.32-.52-.32-.86ZM61.88,19.72c0,.26.06.46.17.57.11.14.26.2.46.2.17,0,.34-.06.46-.2s.17-.34.17-.6-.06-.46-.17-.57-.26-.2-.46-.2-.34.06-.46.2-.17.34-.17.6Z"
             id="path34" />
          <path
             class="d"
             d="M65.66,20.04l.46.14c-.06.26-.17.43-.34.54s-.37.17-.6.17c-.32,0-.54-.11-.74-.32-.2-.2-.29-.49-.29-.86s.09-.66.29-.89c.2-.2.46-.32.77-.32.29,0,.52.09.69.26.11.09.17.23.23.43l-.46.11c-.03-.11-.09-.2-.17-.29-.09-.06-.2-.11-.32-.11-.17,0-.32.06-.4.17-.11.11-.14.32-.14.6s.06.49.14.6c.11.11.23.17.4.17.11,0,.23-.03.32-.11.06-.03.14-.17.17-.32Z"
             id="path36" />
          <path
             class="d"
             d="M66.72,20.87v-2.26h.46v1l.92-1h.63l-.86.89.92,1.4h-.6l-.63-1.06-.37.37v.69h-.46v-.03Z"
             id="path38" />
          <path
             class="d"
             d="M70.35,18.58h.92c.17,0,.32,0,.4.03s.17.06.23.09.11.11.17.2.06.17.06.26c0,.11-.03.2-.09.29s-.14.14-.23.2c.14.03.26.11.32.2s.11.2.11.34c0,.11-.03.2-.09.32-.06.09-.11.17-.2.23-.09.06-.17.09-.32.11-.09,0-.26,0-.54.03h-.77v-2.29h.03ZM70.81,18.98v.52h.66c.09,0,.14-.03.17-.09s.06-.11.06-.17-.03-.11-.06-.17c-.03-.06-.09-.06-.17-.09h-.66ZM70.81,19.87v.6h.74c.06,0,.11-.03.17-.09s.06-.11.06-.2c0-.06-.03-.11-.06-.17-.03-.06-.09-.09-.14-.11-.06-.03-.2-.03-.4-.03h-.37Z"
             id="path40" />
          <path
             class="d"
             d="M72.9,20.87v-2.26h.46v1.86h1.15v.37h-1.6v.03Z"
             id="path42" />
          <path
             class="d"
             d="M75.4,20.87l-.8-2.26h.49l.57,1.69.54-1.69h.49l-.8,2.26h-.49Z"
             id="path44" />
          <path
             class="d"
             d="M77.17,18.58h.83c.2,0,.34.03.43.06.14.03.26.11.34.2.09.11.17.23.23.37s.09.32.09.54c0,.2-.03.34-.06.49-.06.17-.14.29-.26.4-.09.09-.2.14-.32.17-.11.03-.23.06-.4.06h-.86v-2.29h-.03ZM77.63,18.98v1.52h.34c.11,0,.23,0,.29-.03.09-.03.14-.06.17-.09s.09-.11.11-.23c.03-.11.06-.23.06-.43s-.03-.32-.06-.4-.09-.17-.14-.23-.11-.09-.2-.11c-.06-.03-.2-.03-.37-.03h-.2v.03Z"
             id="path46" />
          <path
             class="d"
             d="M81.12,20.87l-.54-2.26h.46l.34,1.58.43-1.58h.54l.4,1.58.34-1.58h.46l-.54,2.26h-.49l-.46-1.69-.46,1.69h-.49Z"
             id="path48" />
        </g>
        <g
           id="g80">
          <path
             class="d"
             d="M44.79,24.02h.83c.2,0,.34.03.43.06.14.03.26.11.34.2s.17.23.23.37.09.32.09.54c0,.2-.03.34-.06.49-.06.17-.14.29-.26.4-.09.09-.2.14-.32.17-.11.03-.23.06-.4.06h-.86v-2.29h-.03ZM45.25,24.42v1.52h.34c.11,0,.23,0,.29-.03.09-.03.14-.06.17-.09.06-.06.09-.11.11-.23s.06-.23.06-.43-.03-.32-.06-.4-.09-.17-.14-.23-.11-.09-.2-.11c-.06-.03-.2-.03-.37-.03h-.2v.03Z"
             id="path52" />
          <path
             class="d"
             d="M47.31,26.31v-2.26h1.69v.37h-1.23v.52h1.15v.37h-1.15v.63h1.26v.37h-1.72Z"
             id="path54" />
          <path
             class="d"
             d="M49.69,26.31v-2.26h.46v1.86h1.15v.37h-1.6v.03Z"
             id="path56" />
          <path
             class="d"
             d="M53.9,26.31h-.49l-.2-.52h-.92l-.2.52h-.49l.89-2.26h.49l.92,2.26ZM53.04,25.39l-.32-.83-.32.83h.63Z"
             id="path58" />
          <path
             class="d"
             d="M54.36,26.31v-2.26h.46l.95,1.52v-1.52h.43v2.26h-.46l-.92-1.49v1.49h-.46Z"
             id="path60" />
          <path
             class="d"
             d="M56.79,25.19c0-.23.03-.43.11-.57.06-.11.11-.23.2-.32.09-.09.2-.17.29-.2.14-.06.32-.09.49-.09.34,0,.6.11.8.32.2.2.32.49.32.86s-.09.66-.29.86-.46.32-.8.32-.6-.11-.8-.32c-.23-.23-.32-.52-.32-.86ZM57.25,25.17c0,.26.06.46.17.57.11.14.26.2.46.2.17,0,.34-.06.46-.2s.17-.34.17-.6-.06-.46-.17-.57-.26-.2-.46-.2-.34.06-.46.2-.17.34-.17.6Z"
             id="path62" />
          <path
             class="d"
             d="M59.57,25.88h.43v.32c0,.11,0,.23-.03.29-.03.09-.06.14-.11.2-.06.06-.14.11-.23.14l-.09-.17c.09-.03.14-.06.2-.11.03-.06.06-.11.06-.2h-.23v-.46Z"
             id="path64" />
          <path
             class="d"
             d="M61.81,26.31v-2.26h.69l.4,1.55.4-1.55h.69v2.26h-.4v-1.8l-.46,1.8h-.43l-.46-1.8v1.8h-.43Z"
             id="path66" />
          <path
             class="d"
             d="M64.7,26.31v-2.26h.46l.95,1.52v-1.52h.43v2.26h-.46l-.92-1.49v1.49h-.46Z"
             id="path68" />
          <path
             class="d"
             d="M68.22,25.71l.43-.06c0,.09.06.17.11.23s.14.09.2.09c.09,0,.17-.03.23-.11.06-.09.09-.17.09-.34,0-.14-.03-.26-.09-.32-.06-.06-.14-.11-.26-.11s-.23.06-.34.17l-.34-.06.23-1.17h1.15v.4h-.83l-.06.37c.09-.06.2-.09.29-.09.2,0,.34.06.49.2s.2.32.2.54c0,.2-.06.34-.17.52-.14.2-.34.32-.63.32-.2,0-.37-.06-.52-.17-.06-.06-.14-.2-.17-.4Z"
             id="path70" />
          <path
             class="d"
             d="M70.23,25.71l.43-.06c0,.09.06.17.11.23s.14.09.2.09c.09,0,.17-.03.23-.11.06-.09.09-.17.09-.34,0-.14-.03-.26-.09-.32-.06-.06-.14-.11-.26-.11s-.23.06-.34.17l-.34-.06.23-1.17h1.15v.4h-.83l-.06.37c.09-.06.2-.09.29-.09.2,0,.34.06.49.2s.2.32.2.54c0,.2-.06.34-.17.52-.14.2-.34.32-.63.32-.2,0-.37-.06-.52-.17-.06-.06-.14-.2-.17-.4Z"
             id="path72" />
          <path
             class="d"
             d="M72.2,25.71l.43-.06c0,.11.06.2.11.26.06.06.14.09.2.09.09,0,.17-.03.23-.11.06-.06.09-.17.09-.29s-.03-.2-.09-.26c-.06-.06-.14-.09-.23-.09-.06,0-.11,0-.2.03l.06-.34c.11,0,.2-.03.26-.09s.09-.11.09-.23c0-.09-.03-.14-.06-.17s-.11-.06-.17-.06c-.09,0-.14.03-.2.09s-.09.11-.09.23l-.4-.06c.03-.14.06-.26.11-.34s.14-.14.23-.2c.11-.06.2-.06.34-.06.2,0,.37.06.52.2.11.11.17.23.17.37,0,.2-.11.37-.32.49.14.03.23.09.32.2.09.09.11.23.11.34,0,.2-.09.37-.23.52s-.32.2-.54.2c-.2,0-.37-.06-.52-.17-.11-.14-.2-.32-.23-.49Z"
             id="path74" />
          <path
             class="d"
             d="M75.7,25.91v.4h-1.52c.03-.14.06-.29.14-.43s.26-.32.49-.54c.2-.17.32-.32.37-.37.06-.09.09-.17.09-.26s-.03-.17-.09-.23-.11-.09-.23-.09c-.09,0-.17.03-.23.09s-.09.14-.09.29l-.43-.06c.03-.23.11-.4.26-.52.14-.11.32-.14.52-.14.23,0,.4.06.52.17s.2.26.2.46c0,.11-.03.2-.06.29-.03.09-.09.2-.17.29-.06.06-.14.17-.29.29s-.23.2-.26.26-.06.09-.09.11h.86Z"
             id="path76" />
          <path
             class="d"
             d="M76.59,25.08c-.11-.06-.2-.11-.26-.2s-.09-.17-.09-.29c0-.17.06-.32.17-.43.11-.11.29-.17.52-.17s.37.06.52.17c.11.11.17.26.17.43,0,.11-.03.2-.09.29s-.14.14-.23.2c.11.06.23.11.29.23s.09.2.09.34c0,.2-.06.37-.2.52s-.32.2-.54.2c-.2,0-.37-.06-.52-.17-.17-.11-.26-.32-.26-.52,0-.11.03-.23.09-.34s.23-.2.34-.26ZM76.64,25.62c0,.11.03.2.09.29.06.06.14.11.23.11s.17-.03.23-.09.09-.17.09-.29-.03-.2-.09-.26-.14-.09-.23-.09c-.11,0-.17.03-.23.11s-.09.11-.09.2ZM76.67,24.65c0,.09.03.14.09.2s.11.09.2.09.14-.03.2-.09.09-.11.09-.2-.03-.14-.09-.2-.11-.09-.2-.09-.14.03-.2.09c-.06.03-.09.11-.09.2Z"
             id="path78" />
        </g>
        <g
           id="g104">
          <path
             class="d"
             d="M45.72,15.28l-1.35-3.76h.83l.97,2.8.93-2.8h.79l-1.35,3.76h-.83Z"
             id="path82" />
          <path
             class="d"
             d="M48.52,15.28v-3.76h.76v3.76h-.76Z"
             id="path84" />
          <path
             class="d"
             d="M51.11,15.28v-3.14h-1.1v-.62h3v.62h-1.14v3.14h-.76Z"
             id="path86" />
          <path
             class="d"
             d="M56.73,15.28h-.83l-.35-.86h-1.52l-.31.86h-.79l1.45-3.76h.79l1.55,3.76ZM55.35,13.8l-.52-1.38-.52,1.38h1.04Z"
             id="path88" />
          <path
             class="d"
             d="M57.42,15.28v-3.73h.76v3.11h1.9v.62h-2.66Z"
             id="path90" />
          <path
             class="d"
             d="M63.47,15.28l-1.35-3.76h.83l.97,2.8.93-2.8h.79l-1.38,3.76h-.79Z"
             id="path92" />
          <path
             class="d"
             d="M66.26,15.28v-3.76h.76v3.76h-.76Z"
             id="path94" />
          <path
             class="d"
             d="M67.81,14.08l.72-.07c.03.24.14.41.28.55s.31.17.55.17.41-.03.55-.14.17-.24.17-.38c0-.1-.03-.17-.07-.24-.07-.07-.14-.1-.28-.17-.1-.03-.28-.07-.62-.17-.41-.1-.69-.24-.86-.38-.24-.21-.35-.45-.35-.76,0-.21.07-.38.17-.55s.28-.31.48-.38c.21-.1.45-.14.72-.14.48,0,.83.1,1.07.31s.38.48.38.83l-.76.03c-.03-.21-.1-.35-.21-.41s-.28-.14-.48-.14-.38.03-.52.14c-.07.07-.1.14-.1.24s.03.17.1.24c.1.07.35.17.69.24.38.1.66.17.83.28s.31.21.41.38c.1.17.14.35.14.59,0,.21-.07.41-.17.62-.1.17-.28.35-.52.41-.21.1-.48.14-.83.14-.48,0-.83-.1-1.1-.35s-.38-.48-.41-.9Z"
             id="path96" />
          <path
             class="d"
             d="M71.75,11.52h.76v2.04c0,.31,0,.52.03.62.03.14.1.28.24.38.14.1.28.14.52.14.21,0,.38-.03.48-.14.1-.1.17-.21.21-.31.03-.14.03-.35.03-.66v-2.07h.76v1.97c0,.45-.03.76-.07.97-.03.17-.1.35-.24.48-.1.14-.24.24-.45.31-.17.07-.41.1-.72.1-.35,0-.62-.03-.83-.14-.17-.07-.35-.21-.45-.31s-.17-.28-.21-.41c-.03-.21-.07-.52-.07-.97v-2Z"
             id="path98" />
          <path
             class="d"
             d="M79.21,15.28h-.83l-.35-.86h-1.52l-.31.86h-.79l1.45-3.76h.79l1.55,3.76ZM77.83,13.8l-.52-1.38-.52,1.38h1.04Z"
             id="path100" />
          <path
             class="d"
             d="M79.9,15.28v-3.73h.76v3.11h1.9v.62h-2.66Z"
             id="path102" />
        </g>
      </g>
    </g>
  </g>
</svg>
